<svg xmlns="http://www.w3.org/2000/svg" width="2748.13" height="1831" viewBox="0 0 2748.13 1831">
  <g id="bdf17a39-12f0-4ca2-ad7b-ba1622abae34" data-name="Illustration">
    <g id="a8a93aff-2ff2-466a-aa62-da81846cbfb1" data-name="Domain Flipping">
      <g>
        <g>
          <g>
            <path d="M364.38,268.22h2019.4a66.52,66.52,0,0,1,66.52,66.52V1658.27a0,0,0,0,1,0,0H297.86a0,0,0,0,1,0,0V334.74a66.52,66.52,0,0,1,66.52-66.52Z" style="fill: #fff"/>
            <path d="M2450.3,1659.27H297.86a1,1,0,0,1-1-1V334.74a67.6,67.6,0,0,1,67.52-67.52h2019.4a67.6,67.6,0,0,1,67.52,67.52V1658.27A1,1,0,0,1,2450.3,1659.27Zm-2151.44-2H2449.3V334.74a65.6,65.6,0,0,0-65.52-65.52H364.38a65.6,65.6,0,0,0-65.52,65.52Z"/>
          </g>
          <g>
            <path d="M2486.44,1830H264.84c-98.27,0-188.61-42-235.23-109.32l-22.43-32.4c-15.75-22.74.57-53.77,28.28-53.77H2712.71c26.44,0,43,28.53,29.79,51.39l-12.3,21.32C2687.09,1781.93,2591.66,1830,2486.44,1830Z" style="fill: #fff"/>
            <path d="M2486.44,1831H264.84c-98.73,0-189.18-42-236-109.75l-22.43-32.4a34.68,34.68,0,0,1-2.25-36.4,34.83,34.83,0,0,1,31.35-18.94H2712.71a35.29,35.29,0,0,1,30.66,52.89l-12.31,21.32C2687.85,1782.61,2591.83,1831,2486.44,1831Zm-2451-195.49a32.87,32.87,0,0,0-29.58,17.87A32.72,32.72,0,0,0,8,1687.71l22.44,32.4C76.94,1787.28,166.76,1829,264.84,1829h2221.6c104.69,0,200-48,242.89-122.28l12.3-21.32a33.28,33.28,0,0,0-28.92-49.89Z"/>
          </g>
        </g>
        <g id="f1df7260-55e6-4c2a-916d-b309dffb0eb9" data-name="Discipline">
          <g>
            <path d="M710.76,693a1,1,0,0,1-1-1V554.78h-108a1,1,0,0,1,0-2h109a1,1,0,0,1,1,1V692A1,1,0,0,1,710.76,693Z"/>
            <g>
              <ellipse cx="387.19" cy="553.78" rx="26.79" ry="26.81" transform="translate(-166.98 940.42) rotate(-89.94)" style="fill: #e2eaff"/>
              <ellipse cx="465.42" cy="553.78" rx="26.79" ry="26.81" transform="translate(-88.83 1018.65) rotate(-89.94)" style="fill: #e2eaff"/>
              <ellipse cx="543.66" cy="553.78" rx="26.79" ry="26.81" transform="translate(-10.68 1096.88) rotate(-89.94)" style="fill: #e2eaff"/>
            </g>
          </g>
          <g>
            <polygon points="2394.57 0 2093.24 0 1942.57 260.84 2093.24 521.68 2394.57 521.68 2545.24 260.84 2394.57 0" style="fill: #014ccc"/>
            <g>
              <path d="M2082.44,305a8.61,8.61,0,0,1,2.12-5.94q2.11-2.37,6.34-2.37t6.42,2.37a8.43,8.43,0,0,1,2.19,5.94,8,8,0,0,1-2.19,5.71q-2.19,2.29-6.42,2.29t-6.34-2.29A8.14,8.14,0,0,1,2082.44,305Z" style="fill: #fff"/>
              <path d="M2207.38,261.64q0,15.87-5.35,27.7a40.42,40.42,0,0,1-15.13,18.05q-9.8,6.24-22.85,6.23a40.27,40.27,0,0,1-38-24.14q-5.45-11.6-5.6-26.88v-7.78q0-15.57,5.42-27.51a40.05,40.05,0,0,1,38-24.62,41.94,41.94,0,0,1,22.89,6.26A40.42,40.42,0,0,1,2202,227.12q5.35,11.91,5.35,27.7Zm-14.17-7q0-19.2-7.72-29.48t-21.59-10.27q-13.5,0-21.25,10.27t-8,28.51v7.94q0,18.62,7.83,29.25t21.55,10.64q13.8,0,21.37-10t7.79-28.81Z" style="fill: #fff"/>
              <path d="M2268.36,268.46H2243v43.68h-14.32v-108h35.76q18.24,0,28.08,8.31t9.83,24.17a29,29,0,0,1-5.46,17.57,32.46,32.46,0,0,1-15.17,11.2l25.38,45.83v.89H2291.8ZM2243,256.82h21.88q10.62,0,16.88-5.5t6.27-14.71q0-10-6-15.37t-17.25-5.43H2243Z" style="fill: #fff"/>
              <path d="M2402.05,298a32.94,32.94,0,0,1-15.32,11.75,62.08,62.08,0,0,1-22.89,3.89,44.36,44.36,0,0,1-23.44-6.19,41.23,41.23,0,0,1-15.84-17.61q-5.61-11.42-5.75-26.48v-9.41q0-24.41,11.39-37.82t32-13.42q16.9,0,27.23,8.64t12.61,24.5H2387.8q-4-21.5-25.52-21.5-14.31,0-21.7,10.06t-7.45,29.13v8.83q0,18.18,8.31,28.9T2363.91,302a49.48,49.48,0,0,0,14-1.78,21.73,21.73,0,0,0,9.94-6V270h-25V258.38h39.17Z" style="fill: #fff"/>
            </g>
          </g>
          <g>
            <g>
              <path d="M1290,331c-4.58-13.76-13.92-26.35-27-32.62s-30-5.22-40.83,4.41c-7.48,6.63-11.46,16.45-13.15,26.31-2.64,15.43.06,32,9,44.91s24.37,21.44,40,20.52C1293.4,392.42,1299.11,358.44,1290,331Z"/>
              <path d="M1520.6,490.69c-2.3-15.2-4.58-30.91-.61-45.75,3.43-12.84,11.45-24.56,11.84-37.85.42-14.44-8.63-27.88-20.39-36.11s-25.93-12.09-39.93-15.1a428.39,428.39,0,0,0-100-9.4c-26.42.63-54.28,4.29-75.2,20.59-20.76,16.17-31.31,42.1-39.5,67.24-24.11,73.95-35.55,151.4-46.89,228.4-1.86,12.66-3.64,26.07,1.24,37.88,6.88,16.69,24.89,25.41,41.76,31.49,71.32,25.7,148.6,30.45,224.19,25.78,18.4-1.14,37.55-3.07,53.2-12.91,36.51-22.94,17.39-75.42,12.2-109.65Z"/>
            </g>
            <g>
              <g>
                <path d="M2004.17,561.73a366.67,366.67,0,0,0,46.21,64.63,268.85,268.85,0,0,0,30.21,29,290.94,290.94,0,0,0,33.9,23.31c3.21,1.91,6.46,3.77,9.71,5.59,59.2-112.15,92.49-224.07,92.49-224.07,47.13-34,19.84-51.82,19.84-51.82,7.38-29.41-16.47-32-16.47-32-7-35.47-38.58-20.82-38.58-20.82,25.81-37.89,38.47-99.86-36.58-22.35C2100.54,379,2043.62,464,1992.44,539.84,1996.18,547.22,2000.06,554.54,2004.17,561.73Z" style="fill: #fff"/>
                <path d="M2128.88,676.33a1.07,1.07,0,0,1-.25,0,1,1,0,0,1-.72-1.22c1-4,3-6.76,5.14-9.69.69-.95,1.41-1.93,2.12-3,34.33-73.54,60.81-140,81-203a1,1,0,0,1,.37-.51c10-7.15,20.38-14.55,24.69-26,2-6.14,4.08-17.46-5.51-23.85a1,1,0,0,1-.38-1.18c4.4-11.74-2-25.7-14.2-31.14-3-1-3.71-4.35-4.35-7.58a17,17,0,0,0-2-6c-10-13.25-24.9-9.79-32.92-6.54h0a1,1,0,0,1-.33.07h-.15s0,0,0,0,0,0,0,0,0,0,0,0h0a1,1,0,0,1-.42-.16h-.06a.69.69,0,0,1-.13-.11h0a.76.76,0,0,1-.11-.16h0a.94.94,0,0,1-.11-.37h0a1,1,0,0,1,.11-.52h0l0,0,2.24-3.51c9.88-15.43,22.17-34.62,15.66-53.28-1.2-1-3.61-1-4.9-1-14,3.87-24.78,13.42-35.16,22.65-1.37,1.21-2.73,2.42-4.1,3.61-51.67,52.88-90.19,110.75-131,172-7.67,11.52-15.59,23.42-23.52,35.14a1,1,0,0,1-1.38.27,1,1,0,0,1-.27-1.39c7.92-11.71,15.84-23.61,23.5-35.12C2062.58,433,2101.15,375.06,2153,322l4.14-3.66c10.58-9.41,21.53-19.14,36.09-23.11a.84.84,0,0,1,.27,0c1.57,0,4.83,0,6.6,1.77a1,1,0,0,1,.23.37c6.52,18.24-3.9,36.56-13.56,51.78a.65.65,0,0,1,0,.21c0,.47-1.16,2.37-2.4,4.09,13.33-4.33,24.6-1.39,32,8.45a18.34,18.34,0,0,1,2.3,6.8c.58,2.91,1.07,5.43,3.11,6.11,13,5.78,19.85,20.42,15.61,33,7.29,5.3,9.35,14.63,5.65,25.74-4.5,12-15,19.55-25.15,26.81-20.16,63.1-46.65,129.52-81,203a.54.54,0,0,1-.07.13c-.75,1.12-1.49,2.14-2.21,3.13-2.1,2.89-3.92,5.38-4.82,9A1,1,0,0,1,2128.88,676.33Z"/>
                <path d="M2119.79,482.8a16.6,16.6,0,0,1-3.11-.29,1,1,0,0,1,.36-2c8.63,1.56,16.43-4.57,20.48-10.31,3.81-5.41,6.07-11.87,8.26-18.12.56-1.61,1.12-3.21,1.7-4.8,2.64-7.16,6.64-16,14.18-21.24,3.59-2.47,7.71-3.94,11.69-5.35,1.81-.65,3.67-1.31,5.44-2.05,4.76-2,10.77-5.64,12.36-11.62,2.1-7.91-4.9-15.72-12.5-17.78-8-2.17-16.52.1-24.56,2.86-21.94,7.55-40.2,17.76-54.28,30.35a1,1,0,0,1-1.33-1.49c14.28-12.77,32.77-23.12,55-30.75,8.35-2.87,17.24-5.21,25.73-2.9s16.32,11.18,13.92,20.22c-1.8,6.77-8.35,10.78-13.53,12.95-1.82.77-3.71,1.44-5.54,2.09-4,1.44-7.86,2.8-11.22,5.12-7.08,4.88-10.9,13.4-13.44,20.28-.58,1.58-1.14,3.17-1.7,4.77-2.23,6.38-4.53,13-8.51,18.61S2128.07,482.79,2119.79,482.8Z"/>
                <path d="M2172.88,439.17a14.29,14.29,0,0,1-1.72-.1c-5.23-.62-10.51-5.06-10-10.69a1,1,0,0,1,1.08-.91,1,1,0,0,1,.91,1.08c-.37,4.41,4.07,8,8.28,8.53,3.82.45,8-.81,13.19-3.95a64.84,64.84,0,0,0,30.62-50.67,1,1,0,1,1,2,.12,66.86,66.86,0,0,1-31.58,52.26C2182.47,436.75,2177.86,439.17,2172.88,439.17Z"/>
                <path d="M2195.9,443.33a14.94,14.94,0,0,1-2.43-.2c-4.68-.75-8.47-4.1-9.21-8.13a1,1,0,0,1,2-.36c.66,3.58,4.3,6,7.56,6.52s6.61-.13,11-2a50.28,50.28,0,0,0,26.5-26.87,1,1,0,0,1,1.31-.54,1,1,0,0,1,.54,1.3A52.31,52.31,0,0,1,2205.55,441,24.79,24.79,0,0,1,2195.9,443.33Z"/>
                <path d="M2213.29,455.14a11.33,11.33,0,0,1-11.26-13.5,1,1,0,0,1,1.17-.79A1,1,0,0,1,2204,442a9.4,9.4,0,0,0,13.25,10.26,1,1,0,0,1,1.33.48,1,1,0,0,1-.48,1.33A11.23,11.23,0,0,1,2213.29,455.14Z"/>
              </g>
              <g>
                <path d="M757.53,920.81s97.35,184.28,245.49,180S1215,964.3,1215,964.3s-43.86,134.36,4.56,170.27,397.54,70.62,421.79-39.52c17.32-78.71,3-130.92,11.94-193.49,0,0,241.82,29.48,362.94-62.85,76.76-58.52,132.5-199.2,132.5-199.2S2099.15,533.87,1999.07,530l-54.54,76.5a166.14,166.14,0,0,1-131.29,69.64l-587.1,14.1c-60.79,1.46-117.45,31.86-151.51,82.2-37.42,55.31-97.77,117.66-176.26,108.93Z" style="fill: #a5bdf9"/>
                <path d="M1651.16,892.64a1,1,0,0,1-1-1,204.56,204.56,0,0,1,17.53-84.33,1,1,0,1,1,1.83.82,202.36,202.36,0,0,0-17.36,83.49,1,1,0,0,1-1,1Z"/>
                <g>
                  <path d="M1366.61,965.22a89.81,89.81,0,0,1-25.84-3.76,91.21,91.21,0,0,1-52.48-41.74,1,1,0,0,1,1.74-1,88.38,88.38,0,0,0,116.64,35,1,1,0,0,1,.9,1.78A91,91,0,0,1,1366.61,965.22Z"/>
                  <path d="M1551.92,945.59a1,1,0,0,1-.15-2c31.78-5,59.13-32.7,63.62-64.53,2.83-20.07-3.18-41.26-16.5-58.13a1,1,0,0,1,.17-1.41,1,1,0,0,1,1.4.17c13.65,17.3,19.81,39,16.91,59.65-4.61,32.67-32.68,61.14-65.29,66.23Z"/>
                </g>
                <path d="M1216.84,949.84h-.12a1,1,0,0,1-.87-1.11c1.75-14.39,3.56-29.26.37-43.63-2.74-12.33-10.9-27.32-25.62-32.43a1,1,0,0,1,.65-1.89c15.5,5.38,24.07,21,26.92,33.88,3.27,14.71,1.44,29.76-.34,44.31A1,1,0,0,1,1216.84,949.84Z"/>
              </g>
              <g>
                <path d="M977.12,964.3H750.4A12.76,12.76,0,0,1,739,957.23L583.33,644.82a12.75,12.75,0,0,1,11.42-18.44H821.47a12.75,12.75,0,0,1,11.42,7.07l155.66,312.4A12.77,12.77,0,0,1,977.12,964.3Z"/>
                <g>
                  <g>
                    <path d="M725.75,778.22c-5.25-2.18-10.55,2.85-13.73,7.56a123.14,123.14,0,0,0-18.18,42.43q3.92-42.3,7.81-84.58c.84-9.07-.45-21.19-9.39-23-6.91-1.35-12.74,5.1-16.33,11.16a114.43,114.43,0,0,0-14.6,40.47q5-29.22,10-58.43c.78-4.5,1.5-9.37-.53-13.47-4.36-8.76-18.62-7.16-24.58.61a23.67,23.67,0,0,0-2.29,3.7c.32-1.33.63-2.66.88-4,1.76-9.52-1.13-21.84-10.56-24.05-5.87-1.37-12,2.06-15.55,7s-4.83,11-5.76,16.94a169.79,169.79,0,0,0,6,77.35c14.56,58.35,55,111.25,103.7,146.63-12.21-43.36,7.13-88.28,8.37-133.32C731.22,786.24,730.37,780.14,725.75,778.22Z" style="fill: #fff"/>
                    <path d="M722.71,925.56a1,1,0,0,1-.59-.19c-52.29-38-90.23-91.67-104.08-147.2A170.67,170.67,0,0,1,612,700.43c.94-6,2.32-12.3,5.94-17.37,3.42-4.79,9.87-8.92,16.59-7.35,9.23,2.16,13,13.68,11.5,24a19,19,0,0,1,15.72-6.16c4.61.44,8.16,2.72,10,6.4,2.26,4.55,1.32,10.06.63,14.08L666.18,750a115.08,115.08,0,0,1,8.89-18.64c3-5,9.23-13.23,17.39-11.63,11.3,2.22,10.66,18.95,10.19,24l-6.74,73a124.84,124.84,0,0,1,15.28-31.51c1.75-2.59,8-10.81,14.94-7.93,4.1,1.7,6.16,6.54,6,14-.46,16.59-3.39,33.37-6.23,49.59-5.07,28.9-9.85,56.19-2.18,83.43a1,1,0,0,1-.39,1.09A1,1,0,0,1,722.71,925.56ZM631.56,677.37c-4.89,0-9.41,3.22-12,6.86C616.17,689,614.86,695,614,700.74a168.85,168.85,0,0,0,6,76.89c13.56,54.32,50.31,106.8,101,144.45-6.72-26.83-1.85-54.64,2.87-81.57,2.82-16.15,5.75-32.85,6.2-49.29.13-4.57-.59-10.37-4.71-12.08-5.55-2.3-11,4.93-12.52,7.2a122.82,122.82,0,0,0-18,42.08,1,1,0,0,1-2-.3l7.81-84.58c.42-4.65,1.07-20-8.59-21.87-7-1.37-12.56,6.1-15.28,10.68a114.33,114.33,0,0,0-14,37.23l-.5,2.9a1,1,0,0,1-1.14.82,1,1,0,0,1-.83-1.15c.15-1,.32-1.94.5-2.92l9.54-55.52c.83-4.86,1.37-9.19-.45-12.85-1.51-3-4.49-4.93-8.39-5.3a17,17,0,0,0-14.49,6.07,21.74,21.74,0,0,0-2.2,3.54,1,1,0,0,1-1.86-.69c.37-1.52.65-2.77.86-3.93,1.8-9.7-1.37-20.92-9.8-22.89A10.7,10.7,0,0,0,631.56,677.37Z"/>
                  </g>
                  <path d="M632.19,779a1,1,0,0,1-1-.88A136.16,136.16,0,0,1,641,709.22a1,1,0,0,1,1.85.78,134,134,0,0,0-9.68,67.87,1,1,0,0,1-.88,1.11Z"/>
                  <path d="M662.29,819.54a1,1,0,0,1-1-.82,132.55,132.55,0,0,1-1.25-40.88,1,1,0,1,1,2,.24,130.77,130.77,0,0,0,1.24,40.27,1,1,0,0,1-.8,1.17Z"/>
                </g>
              </g>
            </g>
            <g>
              <path d="M1368.27,546.12,1351.11,670a15.13,15.13,0,0,1-12.58,12.85L1300.25,689s103.1,90.74,206.2-4l-39.62-4.52a15.79,15.79,0,0,1-14-16l1.7-102S1445.63,494.9,1368.27,546.12Z" style="fill: #fff"/>
              <g>
                <g>
                  <path d="M1341.34,513.87c-7.12,5.56-10.35,15.35-8.78,24.25s7.57,16.7,15.32,21.34,17.1,6.23,26.1,5.4c5-.46,10.13-1.6,14.8.11,3.63,1.33,6.42,4.2,9.34,6.72,13.79,11.93,33.17,17.29,51,13.57s33.64-16.67,40.25-33.65c5.46-14,4.72-29.69,2.32-44.55-4.6-28.44-14.92-55.66-26.77-81.92a148.91,148.91,0,0,1-63,1,71.83,71.83,0,0,1-25.46,81c-2.12,1.57-5.46,4.63-8.08,5.19-3.27.7-5.32-1.48-8.72-2.31A21.87,21.87,0,0,0,1341.34,513.87Z" style="fill: #fff"/>
                  <path d="M1437.78,587.41a62.39,62.39,0,0,1-40.32-15c-.48-.42-1-.85-1.45-1.29-2.33-2.06-4.73-4.2-7.57-5.25-3.56-1.3-7.59-.83-11.49-.37-1,.11-1.92.23-2.88.32-9.73.9-19.21-1.07-26.7-5.55-8.33-5-14.24-13.21-15.79-22-1.68-9.5,2-19.63,9.14-25.21a23,23,0,0,1,19.19-4.09,20.36,20.36,0,0,1,3.47,1.3c1.7.78,3,1.39,4.8,1s4.23-2.29,6.16-3.82c.55-.44,1.07-.86,1.54-1.2a70.8,70.8,0,0,0,25.1-79.86,1,1,0,0,1,1.15-1.3,148.36,148.36,0,0,0,62.58-.95,1,1,0,0,1,1.14.56c9.83,21.8,21.78,50.83,26.85,82.17,1.91,11.82,3.74,29.36-2.38,45.07-6.62,17-22.7,30.45-41,34.26A55.85,55.85,0,0,1,1437.78,587.41ZM1383,563.06a17.37,17.37,0,0,1,6.12,1c3.2,1.17,5.74,3.44,8.21,5.63l1.43,1.27c13.68,11.83,32.9,16.94,50.16,13.34,17.63-3.69,33.15-16.65,39.53-33,5.94-15.25,4.14-32.43,2.26-44-5-30.75-16.64-59.32-26.36-80.92a150.59,150.59,0,0,1-60.95,1.11,72.81,72.81,0,0,1-26.34,80.48c-.45.33-1,.73-1.49,1.16-2.09,1.66-4.69,3.72-7,4.21s-4.26-.33-6-1.15a17.59,17.59,0,0,0-3.11-1.17,20.91,20.91,0,0,0-17.49,3.72c-6.58,5.14-10,14.49-8.41,23.28,1.46,8.25,7,16,14.85,20.66,7.13,4.26,16.18,6.13,25.5,5.26.93-.08,1.88-.19,2.83-.31A55.14,55.14,0,0,1,1383,563.06Zm-41.67-49.19h0Z"/>
                </g>
                <path d="M1373.51,551a1,1,0,0,1-.86-.48,21.14,21.14,0,0,0-17-9.93,1,1,0,0,1,.07-2,23.22,23.22,0,0,1,18.6,10.89,1,1,0,0,1-.33,1.38A1,1,0,0,1,1373.51,551Z"/>
              </g>
            </g>
            <g>
              <path d="M1595.85,1631.86l-11.32-493.62a64.49,64.49,0,0,0-62.22-43.17l-233.19,4.85a64.51,64.51,0,0,0-59.6,43.36c-6.33,18.21-140.15,387.35-182.83,488.58C1138.11,1631.86,1495,1631.62,1595.85,1631.86Z" style="fill: #fff"/>
              <g>
                <path d="M1046.7,1635.51a1,1,0,0,1-.35-.06,1,1,0,0,1-.59-1.29c1.76-4.73,176.57-473.22,182.81-491.21a1,1,0,1,1,1.89.66c-6.25,18-181.06,486.52-182.83,491.25A1,1,0,0,1,1046.7,1635.51Z"/>
                <path d="M1595.85,1635.51a1,1,0,0,1-1-1l-11.32-496.27a1,1,0,0,1,1-1h0a1,1,0,0,1,1,1l11.32,496.27a1,1,0,0,1-1,1Z"/>
              </g>
              <path d="M1336.48,1635.51a.68.68,0,0,1-.2,0,1,1,0,0,1-.78-1.18l59.56-287.07a70,70,0,0,1,38.23-48.17l32-15.38a1,1,0,0,1,.86,1.81l-32,15.37a68,68,0,0,0-37.15,46.79l-59.55,287.06A1,1,0,0,1,1336.48,1635.51Z"/>
            </g>
          </g>
          <g>
            <path d="M2314.57,1613.76a1,1,0,0,1-.28,0,1,1,0,0,1-.68-1.24,937.68,937.68,0,0,0,36.66-244,1,1,0,0,1,1-1h0a1,1,0,0,1,1,1A939.54,939.54,0,0,1,2315.53,1613,1,1,0,0,1,2314.57,1613.76Z"/>
            <path d="M2267.47,964.25a1,1,0,0,1-.91-.59A937.89,937.89,0,0,0,2161.3,787.12a1,1,0,0,1,1.6-1.21,940.5,940.5,0,0,1,105.48,176.92,1,1,0,0,1-.5,1.33A1,1,0,0,1,2267.47,964.25Z"/>
            <path d="M1896,548.15a1,1,0,0,1-.51-.14,931.2,931.2,0,0,0-268.15-108.9,1,1,0,0,1-.74-1.2,1,1,0,0,1,1.2-.75A933.23,933.23,0,0,1,1896.5,546.3a1,1,0,0,1,.34,1.37A1,1,0,0,1,1896,548.15Z"/>
            <path d="M852.63,599.86a1,1,0,0,1-.6-1.8,935.39,935.39,0,0,1,345.12-160.71,1,1,0,0,1,.46,1.94A928.78,928.78,0,0,0,853.22,599.66,1,1,0,0,1,852.63,599.86Z"/>
            <path d="M548.2,987.08a1,1,0,0,1-.39-.08,1,1,0,0,1-.53-1.31,938.59,938.59,0,0,1,66.07-127.64,1,1,0,1,1,1.7,1.05,937.47,937.47,0,0,0-65.93,127.37A1,1,0,0,1,548.2,987.08Z"/>
            <path d="M512,1616.63a1,1,0,0,1-1-.72A938.71,938.71,0,0,1,473.8,1383a1,1,0,0,1,1-1,1,1,0,0,1,1,1,936.94,936.94,0,0,0,37.12,232.44,1,1,0,0,1-.68,1.24A.92.92,0,0,1,512,1616.63Z"/>
            <path d="M2161.7,1567a1,1,0,0,1-.3,0,1,1,0,0,1-.65-1.26,780.66,780.66,0,0,0,35.81-189.4,1,1,0,0,1,2,.13,782.69,782.69,0,0,1-35.9,189.88A1,1,0,0,1,2161.7,1567Z"/>
            <path d="M2112.65,968.88a1,1,0,0,1-.89-.54,783.9,783.9,0,0,0-41.28-70.77,1,1,0,0,1,.29-1.38,1,1,0,0,1,1.38.28,786.72,786.72,0,0,1,41.39,71,1,1,0,0,1-.43,1.34A1,1,0,0,1,2112.65,968.88Z"/>
            <path d="M1790.64,639a1.07,1.07,0,0,1-.48-.12,778.79,778.79,0,0,0-178.29-70.52,1,1,0,0,1,.5-1.94,781.25,781.25,0,0,1,178.75,70.7,1,1,0,0,1-.48,1.88Z"/>
            <path d="M935.37,707.35a1,1,0,0,1-.79-.38,1,1,0,0,1,.18-1.41,784.28,784.28,0,0,1,187.49-107.63,1,1,0,0,1,.75,1.86A781.92,781.92,0,0,0,936,707.14,1,1,0,0,1,935.37,707.35Z"/>
            <path d="M688.35,1033a1,1,0,0,1-.37-.07,1,1,0,0,1-.56-1.3c8-19.72,16.92-39.37,26.52-58.4a1,1,0,0,1,1.79.9c-9.58,19-18.48,38.58-26.45,58.25A1,1,0,0,1,688.35,1033Z"/>
            <path d="M678.48,1595.48a1,1,0,0,1-.94-.66A780.57,780.57,0,0,1,633.44,1397a1,1,0,0,1,2-.18,778.71,778.71,0,0,0,44,197.34,1,1,0,0,1-.94,1.35Z"/>
          </g>
          <g>
            <g>
              <polygon points="1058.14 187.54 868.88 187.54 774.25 351.37 868.88 515.19 1058.14 515.19 1152.76 351.37 1058.14 187.54" style="fill: #fff"/>
              <path d="M1058.14,516.19H868.88a1,1,0,0,1-.87-.5L773.39,351.87a1,1,0,0,1,0-1L868,187a1,1,0,0,1,.87-.5h189.26a1,1,0,0,1,.86.5l94.63,163.83a1,1,0,0,1,0,1L1059,515.69A1,1,0,0,1,1058.14,516.19Zm-188.68-2h188.1l94-162.82-94-162.83H869.46L775.41,351.37Z"/>
            </g>
            <g>
              <path d="M865.06,380.33a6.44,6.44,0,0,1,1.59-4.47,6.09,6.09,0,0,1,4.77-1.78,6.25,6.25,0,0,1,4.82,1.78,6.35,6.35,0,0,1,1.65,4.47,6,6,0,0,1-1.65,4.29,6.34,6.34,0,0,1-4.82,1.73,6.18,6.18,0,0,1-4.77-1.73A6,6,0,0,1,865.06,380.33Z"/>
              <path d="M904.67,325.39,905,333a22,22,0,0,1,18.07-8.7q19.14,0,19.31,21.58v39.88H932.07V345.8q-.06-6.53-3-9.64T920,333a14.88,14.88,0,0,0-8.82,2.68,18.11,18.11,0,0,0-5.91,7v43H894.91V325.39Z"/>
              <path d="M983,386.85q-12.27,0-20-8.06t-7.7-21.55v-1.9a36.12,36.12,0,0,1,3.43-16,26.68,26.68,0,0,1,9.59-11.05,24.21,24.21,0,0,1,13.37-4q11.78,0,18.3,7.75t6.53,22.2v4.29h-40.9q.23,8.93,5.21,14.42a16.43,16.43,0,0,0,12.7,5.49,18,18,0,0,0,9.26-2.23,23.4,23.4,0,0,0,6.64-5.91l6.31,4.91Q998.19,386.86,983,386.85Zm-1.28-54.1a13.76,13.76,0,0,0-10.49,4.55Q967,341.85,966,350h30.25v-.78q-.45-7.86-4.25-12.18A12.94,12.94,0,0,0,981.73,332.75Z"/>
              <path d="M1032.5,310.78v14.61h11.27v8H1032.5v37.47a8.38,8.38,0,0,0,1.51,5.44q1.5,1.82,5.13,1.82a25.47,25.47,0,0,0,4.91-.67v8.31a30,30,0,0,1-7.92,1.11q-6.92,0-10.43-4.18t-3.52-11.88V333.37h-11v-8h11V310.78Z"/>
            </g>
          </g>
          <g>
            <polygon points="651.67 1023.47 462.41 1023.47 367.78 1187.29 462.41 1351.12 651.67 1351.12 746.3 1187.29 651.67 1023.47" style="fill: #e2eaff"/>
            <g>
              <path d="M450.5,1220.52a6.46,6.46,0,0,1,1.59-4.46,6.06,6.06,0,0,1,4.77-1.78,6.25,6.25,0,0,1,4.83,1.78,6.36,6.36,0,0,1,1.64,4.46,6,6,0,0,1-1.64,4.3,6.38,6.38,0,0,1-4.83,1.73,6.18,6.18,0,0,1-4.77-1.73A6.11,6.11,0,0,1,450.5,1220.52Z" style="fill: #fff"/>
              <path d="M480.41,1149.58a6.19,6.19,0,0,1,1.53-4.24,5.77,5.77,0,0,1,4.55-1.73,5.85,5.85,0,0,1,4.57,1.73,6.13,6.13,0,0,1,1.57,4.24,6.11,6.11,0,1,1-12.22,0Zm11.16,76.35H481.24v-60.34h10.33Z" style="fill: #fff"/>
              <path d="M517.85,1165.59l.33,7.58a22,22,0,0,1,18.08-8.7q19.14,0,19.31,21.59v39.87H545.24V1186q0-6.52-3-9.65t-9.13-3.12a14.87,14.87,0,0,0-8.81,2.68,18.19,18.19,0,0,0-5.92,7v43H508.08v-60.34Z" style="fill: #fff"/>
              <path d="M576.21,1225.93v-52.37h-9.54v-8h9.54v-6.19q0-9.7,5.19-15t14.67-5.29a27.19,27.19,0,0,1,7.09.94l-.56,8.31a30.08,30.08,0,0,0-5.58-.5q-5,0-7.75,2.94c-1.83,2-2.74,4.76-2.74,8.42v6.38h12.89v8H586.53v52.37Z" style="fill: #fff"/>
              <path d="M608.07,1195.2a35.56,35.56,0,0,1,3.49-16,26,26,0,0,1,9.71-10.93,26.47,26.47,0,0,1,14.2-3.85q12.33,0,19.94,8.54T663,1195.7v.73a35.93,35.93,0,0,1-3.37,15.81,25.62,25.62,0,0,1-9.66,10.9,26.66,26.66,0,0,1-14.42,3.91q-12.29,0-19.89-8.53t-7.62-22.59Zm10.38,1.23q0,10,4.66,16.12a15.79,15.79,0,0,0,25-.09q4.62-6.15,4.63-17.26,0-9.93-4.72-16.09a15,15,0,0,0-12.52-6.16,14.82,14.82,0,0,0-12.33,6.08Q618.44,1185.11,618.45,1196.43Z" style="fill: #fff"/>
            </g>
          </g>
          <g>
            <g>
              <polygon points="2302.42 1006.19 2113.16 1006.19 2018.53 1170.01 2113.16 1333.84 2302.42 1333.84 2397.05 1170.01 2302.42 1006.19" style="fill: #fff"/>
              <path d="M2302.42,1334.84H2113.16a1,1,0,0,1-.86-.5l-94.63-163.83a1,1,0,0,1,0-1l94.63-163.82a1,1,0,0,1,.86-.5h189.26a1,1,0,0,1,.86.5l94.63,163.82a1,1,0,0,1,0,1l-94.63,163.83A1,1,0,0,1,2302.42,1334.84Zm-188.68-2h188.1l94-162.83-94-162.82h-188.1l-94,162.82Z"/>
            </g>
            <g>
              <path d="M2083.91,1199.24a6.46,6.46,0,0,1,1.59-4.46,6.06,6.06,0,0,1,4.77-1.78,6.25,6.25,0,0,1,4.83,1.78,6.36,6.36,0,0,1,1.64,4.46,6,6,0,0,1-1.64,4.3,6.38,6.38,0,0,1-4.83,1.73,6.18,6.18,0,0,1-4.77-1.73A6.11,6.11,0,0,1,2083.91,1199.24Z"/>
              <path d="M2138,1197.35a14.87,14.87,0,0,0,9.65-3.35,11.75,11.75,0,0,0,4.57-8.36H2162a18.82,18.82,0,0,1-3.57,9.87,23.63,23.63,0,0,1-8.79,7.47,25.33,25.33,0,0,1-11.63,2.79q-12.33,0-19.62-8.23t-7.28-22.5v-1.73a36.28,36.28,0,0,1,3.24-15.67,24.54,24.54,0,0,1,9.29-10.65,26.36,26.36,0,0,1,14.31-3.8q10.15,0,16.88,6.08a21.77,21.77,0,0,1,7.17,15.79h-9.77a14.14,14.14,0,0,0-4.43-9.62,13.8,13.8,0,0,0-9.85-3.77q-7.86,0-12.19,5.66t-4.32,16.37v2q0,10.44,4.29,16.06T2138,1197.35Z"/>
              <path d="M2170.84,1173.92a35.56,35.56,0,0,1,3.49-16A26,26,0,0,1,2184,1147a26.47,26.47,0,0,1,14.2-3.85q12.33,0,20,8.54t7.61,22.7v.72a35.9,35.9,0,0,1-3.37,15.81,25.62,25.62,0,0,1-9.66,10.9,26.66,26.66,0,0,1-14.42,3.91q-12.29,0-19.89-8.53t-7.62-22.59Zm10.38,1.23q0,10,4.66,16.12a15.79,15.79,0,0,0,25-.09q4.64-6.15,4.63-17.26,0-9.92-4.72-16.09a15,15,0,0,0-12.52-6.16,14.82,14.82,0,0,0-12.33,6.08Q2181.22,1163.82,2181.22,1175.15Z"/>
              <path d="M2248.46,1144.31l.28,6.69q6.63-7.8,17.91-7.81,12.66,0,17.24,9.71a22.82,22.82,0,0,1,7.84-7,23.19,23.19,0,0,1,11.41-2.68q19.86,0,20.2,21v40.43H2313v-39.82q0-6.46-3-9.67t-9.94-3.21a13.68,13.68,0,0,0-9.54,3.43,13.92,13.92,0,0,0-4.41,9.23v40H2275.8v-39.54q0-13.15-12.89-13.16-10.15,0-13.9,8.64v44.06h-10.32v-60.34Z"/>
            </g>
          </g>
          <g>
            <g>
              <ellipse cx="885.65" cy="1433.42" rx="139.35" ry="139.29" style="fill: #fff"/>
              <path d="M885.72,1573.71c-1.75,0-3.49,0-5.25-.09a140.33,140.33,0,0,1-135.08-145.38c2.86-77.3,68.13-137.87,145.44-135a140.31,140.31,0,0,1,135.08,145.37C1023.11,1514.15,960.73,1573.71,885.72,1573.71Zm-.14-278.58c-74,0-135.44,58.72-138.19,133.19a138.32,138.32,0,0,0,133.15,143.3c76.19,2.82,140.55-56.89,143.37-133.09l1,0-1,0a138.32,138.32,0,0,0-133.15-143.3C889,1295.17,887.3,1295.13,885.58,1295.13Z"/>
            </g>
            <g>
              <ellipse cx="885.65" cy="1433.42" rx="109.56" ry="109.51" style="fill: #fff"/>
              <path d="M885.7,1543.93c-1.38,0-2.75,0-4.13-.07a110.7,110.7,0,1,1,4.13.07Zm-.1-219a108.51,108.51,0,1,0,108.54,112.52l1,0-1,0A108.52,108.52,0,0,0,889.66,1325C888.3,1324.94,887,1324.91,885.6,1324.91Z"/>
            </g>
            <path d="M876.37,1510.6l.71-19c-10.94-.59-22.13-4.4-28.56-9.36l5-12.47a50.32,50.32,0,0,0,26.87,9.11c13.39.5,22.74-6.9,23.13-17.65.39-10.37-6.73-17-20.49-23.23-19-8.25-30.53-17.36-29.92-33.77.58-15.65,12.15-27.12,29.61-29.31l.71-19,11.69.43-.67,18.29c11.3.79,18.93,4.1,24.28,7.5l-5.18,12.28A45.58,45.58,0,0,0,890,1387c-14.53-.54-20.32,7.93-20.6,15.48-.36,9.8,6.44,15,22.6,22.36,19.14,8.64,28.59,18.8,28,35.59-.55,14.89-11.45,28.47-31,31l-.72,19.61Z" style="fill: #5479f7"/>
          </g>
        </g>
      </g>
      <path d="M2355.24,829.61a32.1,32.1,0,0,0,40.53,26.16A131.33,131.33,0,0,0,2416,889.32a33.41,33.41,0,0,0-2.53,3,32.22,32.22,0,1,0,54,34.89,131.68,131.68,0,0,0,38.08,9.4,32.23,32.23,0,1,0,63.22-9.59,131.48,131.48,0,0,0,33.58-20.26,30.52,30.52,0,0,0,3,2.52,32.22,32.22,0,1,0,34.92-54,131.24,131.24,0,0,0,9.41-38.06,32.74,32.74,0,0,0,3.91-.33,32.21,32.21,0,1,0-9.67-63.68,31.61,31.61,0,0,0-3.82.85,131.71,131.71,0,0,0-20.28-33.56,32.2,32.2,0,1,0-49.37-41.18,31.2,31.2,0,0,0-2.11,3.3,131.36,131.36,0,0,0-38.08-9.4,32.23,32.23,0,1,0-63.22,9.59,131.48,131.48,0,0,0-33.58,20.26,32.21,32.21,0,1,0-41.23,49.33,30.75,30.75,0,0,0,3.31,2.11,131.24,131.24,0,0,0-9.41,38.06,30.78,30.78,0,0,0-3.91.33A32.2,32.2,0,0,0,2355.24,829.61Zm103.54-15.7a59.85,59.85,0,1,1,68.15,50.15A59.81,59.81,0,0,1,2458.78,813.91Z" style="fill: #e2eaff"/>
      <g>
        <path d="M434.83,95.64a52.8,52.8,0,0,0-4.69,3.94,205.32,205.32,0,0,0-52.4-31.74,53.26,53.26,0,0,0,1.33-6,50.36,50.36,0,0,0-99.55-15.29,52.91,52.91,0,0,0-.53,6.09,205.72,205.72,0,0,0-59.53,14.56,49.83,49.83,0,0,0-3.29-5.16A50.33,50.33,0,0,0,135,121.53a49.8,49.8,0,0,0,4,4.68,205,205,0,0,0-31.8,52.32,52.46,52.46,0,0,0-6-1.33,50.28,50.28,0,1,0-9.21,99.91,204.86,204.86,0,0,0,14.58,59.44,51.59,51.59,0,0,0-5.17,3.28A50.31,50.31,0,1,0,165.57,417,205.55,205.55,0,0,0,218,448.72a49.17,49.17,0,0,0-1.33,6A50.35,50.35,0,0,0,316.19,470a48.79,48.79,0,0,0,.53-6.09,205.86,205.86,0,0,0,59.54-14.56,50.31,50.31,0,1,0,84.5-54.3,49.71,49.71,0,0,0-3.94-4.68A205,205,0,0,0,488.61,338,50.12,50.12,0,0,0,552,297.31a50,50,0,0,0-48.22-57.86A204.84,204.84,0,0,0,489.23,180a52.75,52.75,0,0,0,5.17-3.28,50.31,50.31,0,1,0-59.57-81.09ZM353.17,333.57a93.42,93.42,0,1,1,20.1-130.51A93.63,93.63,0,0,1,353.17,333.57Z" style="fill: #fff"/>
        <path d="M266.45,513.62a52.24,52.24,0,0,1-7.84-.6,51.28,51.28,0,0,1-43-58.48,49.59,49.59,0,0,1,1.12-5.23,206.68,206.68,0,0,1-51.17-31,47.84,47.84,0,0,1-4.14,3.41,51.46,51.46,0,0,1-71.78-11,51.22,51.22,0,0,1,11-71.67,48.92,48.92,0,0,1,4.5-2.91,205.67,205.67,0,0,1-14.23-58,48,48,0,0,1-5.34-.51,51.28,51.28,0,1,1,15.62-101.36,49.92,49.92,0,0,1,5.24,1.13,205.91,205.91,0,0,1,31.05-51.09,48.34,48.34,0,0,1-3.42-4.13,51.22,51.22,0,0,1,11-71.67,51.48,51.48,0,0,1,71.79,11,50.32,50.32,0,0,1,2.91,4.5A206.64,206.64,0,0,1,278,51.76a50.44,50.44,0,0,1,.5-5.33A51.36,51.36,0,0,1,380.06,62a49.59,49.59,0,0,1-1.12,5.23,207,207,0,0,1,51.17,31,47.79,47.79,0,0,1,4.13-3.41,51.47,51.47,0,0,1,71.79,11,51.22,51.22,0,0,1-11,71.67,48.92,48.92,0,0,1-4.5,2.91,206.09,206.09,0,0,1,14.23,58,50.31,50.31,0,0,1,5.33.51,51.28,51.28,0,1,1-15.61,101.36,49.21,49.21,0,0,1-5.24-1.12,206,206,0,0,1-31.05,51.08,49.94,49.94,0,0,1,3.42,4.13,51.22,51.22,0,0,1-11,71.67,51.1,51.1,0,0,1-74.71-15.52,206.66,206.66,0,0,1-58.13,14.21,50.31,50.31,0,0,1-.51,5.33A51.42,51.42,0,0,1,266.45,513.62ZM165.57,416a1,1,0,0,1,.64.23,204.17,204.17,0,0,0,52.15,31.59,1,1,0,0,1,.58,1.19,49.57,49.57,0,0,0-1.31,5.85,49.36,49.36,0,1,0,98.09,9,1,1,0,0,1,.91-1,204.59,204.59,0,0,0,59.25-14.48,1,1,0,0,1,1.25.43,47.57,47.57,0,0,0,3.22,5.06,49.47,49.47,0,0,0,69,10.6A49.23,49.23,0,0,0,460,395.62a51.15,51.15,0,0,0-3.87-4.59,1,1,0,0,1,0-1.32,203.89,203.89,0,0,0,31.64-52.07,1,1,0,0,1,1.19-.57,50.67,50.67,0,0,0,5.86,1.3A49.41,49.41,0,0,0,551,297.16,49.3,49.3,0,0,0,509.75,241a50.83,50.83,0,0,0-6-.51,1,1,0,0,1-1-.91,204,204,0,0,0-14.51-59.15,1,1,0,0,1,.44-1.25A49.2,49.2,0,0,0,504.42,107a49.48,49.48,0,0,0-69-10.59,48,48,0,0,0-4.59,3.86,1,1,0,0,1-1.33,0,204.4,204.4,0,0,0-52.15-31.59,1,1,0,0,1-.57-1.19,50.54,50.54,0,0,0,1.3-5.85A49.3,49.3,0,0,0,336.8,5.52a49.41,49.41,0,0,0-56.29,41.22,50.32,50.32,0,0,0-.52,6,1,1,0,0,1-.91,1,204.53,204.53,0,0,0-59.24,14.48,1,1,0,0,1-1.25-.43,49.11,49.11,0,0,0-72.22-15.66,49.24,49.24,0,0,0-10.61,68.88,49.83,49.83,0,0,0,3.86,4.59,1,1,0,0,1,0,1.32A204.17,204.17,0,0,0,108,178.92a1,1,0,0,1-1.19.57,50.22,50.22,0,0,0-5.86-1.3A49.28,49.28,0,1,0,86,275.6a51,51,0,0,0,6,.51,1,1,0,0,1,1,.91,203.82,203.82,0,0,0,14.5,59.15,1,1,0,0,1-.43,1.25,47.78,47.78,0,0,0-5.07,3.22A49.24,49.24,0,0,0,91.3,409.52a49.46,49.46,0,0,0,69,10.59,48.09,48.09,0,0,0,4.6-3.86A1,1,0,0,1,165.57,416ZM434.83,95.64h0ZM298,352.61a94.37,94.37,0,1,1,55.78-18.23A94.48,94.48,0,0,1,298,352.61ZM297.74,166a92.36,92.36,0,1,0,74.73,37.71A92.13,92.13,0,0,0,297.74,166Z"/>
      </g>
    </g>
  </g>
</svg>
