<svg data-v-adc70120="" data-v-776bd732="" xmlns="http://www.w3.org/2000/svg" fill="none" viewBox="0 0 24 24" class="h-svgo-icon" style="fill:#000; color:#000;"><path fill="currentColor" fill-rule="evenodd" d="M10 21.397a1 1 0 0 1 1-1h9.25a1 1 0 0 1 0 2H11a1 1 0 0 1-1-1ZM6.614 19.174 19.766 5.88l.28-.285-.283-.28-1.272-1.26-.285-.28-.281.283-8.074 8.145-5.08 5.153-.07.072-.03.097-.722 2.486 2.494-.735.098-.03.073-.072Zm1.815-8.378-5.083 5.157c-.16.161-.238.242-.304.332a1.5 1.5 0 0 0-.15.256c-.047.1-.078.21-.142.426l-.886 3.048c-.279.96-.418 1.44-.295 1.767.107.284.332.509.617.615.328.121.808-.02 1.768-.303l3.055-.9c.22-.066.331-.098.434-.147.092-.042.179-.094.26-.155.091-.067.172-.15.334-.313L21.189 7.285c.59-.597.885-.895.995-1.238a1.498 1.498 0 0 0-.005-.926c-.113-.341-.412-.637-1.008-1.227l-1.272-1.259c-.598-.59-.896-.886-1.24-.996a1.502 1.502 0 0 0-.927.005c-.342.113-.638.41-1.229 1.007l-8.074 8.145Z" clip-rule="evenodd"></path></svg>