<svg data-v-adc70120="" data-v-776bd732="" xmlns="http://www.w3.org/2000/svg" fill="none" viewBox="0 0 24 24" class="h-svgo-icon" style="fill: #000; color: #000;"><path fill="currentColor" fill-rule="evenodd" d="M1.5 8.55c0-1.68 0-2.52.327-3.162a3 3 0 0 1 1.311-1.311C3.78 3.75 4.62 3.75 6.3 3.75h11.4c1.68 0 2.52 0 3.162.327a3 3 0 0 1 1.311 1.311c.327.642.327 1.482.327 3.162v6.9c0 1.68 0 2.52-.327 3.162a3 3 0 0 1-1.311 1.311c-.642.327-1.482.327-3.162.327H6.3c-1.68 0-2.52 0-3.162-.327a3 3 0 0 1-1.311-1.311C1.5 17.97 1.5 17.13 1.5 15.45v-6.9Zm4.8-2.8h11.4c.873 0 1.408.002 1.808.034.186.015.299.035.367.05a.597.597 0 0 1 .063.019l.016.006c.107.054.202.127.282.214L12 12.25 3.764 6.073a1 1 0 0 1 .282-.214s.005-.003.016-.006c.01-.004.03-.01.063-.018.068-.016.181-.036.367-.05.4-.033.935-.035 1.808-.035ZM3.5 8.375v7.075c0 .873.002 1.408.034 1.808.015.186.035.299.05.367a.597.597 0 0 0 .025.079 1 1 0 0 0 .453.443c.01.004.03.01.063.018.068.016.181.036.367.05.4.033.935.035 1.808.035h11.4c.873 0 1.408-.002 1.808-.034.186-.015.299-.035.367-.05a.59.59 0 0 0 .063-.019l.006-.002.01-.004a1 1 0 0 0 .437-.437s.003-.005.006-.016a.59.59 0 0 0 .018-.063c.016-.069.036-.181.05-.367.033-.4.035-.935.035-1.808V8.375l-7.45 5.588a1.75 1.75 0 0 1-2.1 0L3.5 8.375Z" clip-rule="evenodd"></path></svg>