<svg data-v-adc70120="" data-v-776bd732="" xmlns="http://www.w3.org/2000/svg" fill="none" viewBox="0 0 21 21" class="h-svgo-icon" style="fill: #000; color: #000;"><g fill="currentColor" clip-path="url(#i201616768__a)"><path d="M6.993 13.974 4.5 13.966l-2.092 2.092 2.496 2.496 3.792-3.792.001 5.363h3.53v-3.824l-5.234-2.327ZM16.02 2.446 12.227 6.24V.875h-3.53v3.824l5.232 2.326.017.009h2.478l2.092-2.092-2.496-2.496ZM20.087 8.736h-3.825l-2.333 5.247v2.48l2.09 2.091 2.496-2.496-3.794-3.793v-.001h5.366V8.736ZM6.994 4.536l-2.09-2.09-2.496 2.497 3.793 3.792h.001v.001H.837v3.528H4.66l1.57-3.529.763-1.715V4.536Z"></path></g><defs><clipPath id="i201616768__a"><path fill="#fff" d="M.837.875h19.25v19.25H.837z"></path></clipPath></defs></svg>