<svg data-v-adc70120="" data-v-776bd732="" xmlns="http://www.w3.org/2000/svg" fill="none" viewBox="0 0 24 24" class="h-svgo-icon" style="fill: #000; color: #000;"><path fill="currentColor" fill-rule="evenodd" d="M9.267 1.948c1.7-.93 3.767-.93 5.466 0l6.037 3.307c1.64.899 1.64 3.232 0 4.131l-.634.347.182.096.451.248c1.641.899 1.641 3.232 0 4.131l-.508.279.293.143c1.721.845 1.78 3.258.095 4.181l-5.916 3.24c-1.7.932-3.767.932-5.466 0l-5.83-3.193c-1.715-.939-1.615-3.405.16-4.211l.238-.108-.604-.331c-1.641-.899-1.641-3.232 0-4.131l.44-.242.188-.105-.628-.344c-1.641-.899-1.641-3.232 0-4.131l6.036-3.307Zm4.505 1.754a3.698 3.698 0 0 0-3.544 0L4.191 7.01a.35.35 0 0 0 0 .623l6.037 3.307c1.1.603 2.443.603 3.544 0l6.037-3.307a.35.35 0 0 0 0-.623l-6.037-3.307ZM5.93 10.865l-1.294.722-.445.244a.35.35 0 0 0 0 .623l6.037 3.307c1.1.603 2.443.603 3.544 0l6.037-3.307a.35.35 0 0 0 0-.623l-.438-.24-1.338-.706-3.3 1.808c-1.7.93-3.767.93-5.466 0L5.93 10.865Zm.097 4.875-1.602.728a.35.35 0 0 0-.027.636l5.83 3.194c1.1.603 2.443.603 3.544 0l5.916-3.24a.35.35 0 0 0-.016-.632l-1.556-.764-3.383 1.853c-1.7.93-3.767.93-5.466 0l-3.24-1.775Z" clip-rule="evenodd"></path></svg>