<svg data-v-adc70120="" data-v-776bd732="" xmlns="http://www.w3.org/2000/svg" fill="none" viewBox="0 0 24 24" class="h-svgo-icon" style="fill: #000; color: #000;"><path fill="currentColor" fill-rule="evenodd" d="M14.249 4.718a5.252 5.252 0 0 1 6.563 3.635 6.375 6.375 0 0 1-3.187 11.897H4.875A4.875 4.875 0 0 1 3 10.874V9.75a6.75 6.75 0 0 1 11.249-5.032Zm-.5 2.236-.834-.746A4.75 4.75 0 0 0 5 9.75v2.457l-1.23.512a2.877 2.877 0 0 0 1.105 5.531h12.75a4.375 4.375 0 0 0 2.186-8.166l-.71-.41-.217-.79a3.252 3.252 0 0 0-4.064-2.25l-1.072.32Z" clip-rule="evenodd"></path></svg>