<svg data-v-adc70120="" data-v-776bd732="" xmlns="http://www.w3.org/2000/svg" fill="none" viewBox="0 0 24 24" width="24" class="h-svgo-icon" style="fill: #000; color: #000;"><path fill="currentColor" d="M6 7.172a1.125 1.125 0 1 1-2.25 0 1.125 1.125 0 0 1 2.25 0ZM9.75 7.172a1.125 1.125 0 1 1-2.25 0 1.125 1.125 0 0 1 2.25 0ZM12.375 8.297a1.125 1.125 0 1 0 0-2.25 1.125 1.125 0 0 0 0 2.25Z"></path><path fill="currentColor" fill-rule="evenodd" d="M0 4.625C0 2.899 1.4 1.5 3.125 1.5h17.75C22.601 1.5 24 2.9 24 4.625v14.75c0 1.726-1.4 3.125-3.125 3.125H3.125A3.125 3.125 0 0 1 0 19.375V4.625ZM3.125 3.5h17.75c.621 0 1.125.504 1.125 1.125v14.75c0 .621-.504 1.125-1.125 1.125H3.125A1.125 1.125 0 0 1 2 19.375V4.625C2 4.004 2.504 3.5 3.125 3.5Z" clip-rule="evenodd"></path></svg>