<svg xmlns="http://www.w3.org/2000/svg" fill="none" viewBox="0 0 24 24" width="40" class="h-svgo-icon carousel-card__play-icon" style="fill:#fff;color:#fff;" data-v-7e78178e="" data-v-adc70120=""><path fill="currentColor" fill-rule="evenodd" d="M6 18.059V5.948c0-1.77 1.948-2.846 3.446-1.906l9.644 6.056c1.405.882 1.405 2.929 0 3.81l-9.644 6.056C7.948 20.905 6 19.828 6 18.06ZM8 5.948v12.11c0 .067.016.104.031.13.02.03.052.064.098.09a.264.264 0 0 0 .128.034c.03 0 .07-.006.126-.042l9.644-6.055a.25.25 0 0 0 0-.423L8.383 5.736a.232.232 0 0 0-.126-.042.264.264 0 0 0-.128.035.264.264 0 0 0-.098.09.232.232 0 0 0-.031.129Z" clip-rule="evenodd"></path><path fill="currentColor" fill-rule="evenodd" d="M6 18.059V5.948C6 4.178 7.948 3.1 9.446 4.042l9.644 6.056c1.405.882 1.405 2.929 0 3.81l-9.644 6.056C7.948 20.904 6 19.828 6 18.06Z" clip-rule="evenodd"></path></svg>