<?xml version="1.0"?>
<svg xmlns="http://www.w3.org/2000/svg" viewBox="0 0 496 496" ><g><path d="m360 464h48v-112h-48zm16-96h16v80h-16zm0 0" data-original="#000000" class="active-path" data-old_color="#000000" fill="#0070d1"/><path d="m296 464h48v-48h-48zm16-32h16v16h-16zm0 0" data-original="#000000" class="active-path" data-old_color="#000000" fill="#0070d1"/><path d="m296 400h48v-48h-48zm16-32h16v16h-16zm0 0" data-original="#000000" class="active-path" data-old_color="#000000" fill="#0070d1"/><path d="m280 416h-48v48h48zm-16 32h-16v-16h16zm0 0" data-original="#000000" class="active-path" data-old_color="#000000" fill="#0070d1"/><path d="m280 352h-48v48h48zm-16 32h-16v-16h16zm0 0" data-original="#000000" class="active-path" data-old_color="#000000" fill="#0070d1"/><path d="m296 336h48v-48h-48zm16-32h16v16h-16zm0 0" data-original="#000000" class="active-path" data-old_color="#000000" fill="#0070d1"/><path d="m360 336h48v-48h-48zm16-32h16v16h-16zm0 0" data-original="#000000" class="active-path" data-old_color="#000000" fill="#0070d1"/><path d="m280 288h-48v48h48zm-16 32h-16v-16h16zm0 0" data-original="#000000" class="active-path" data-old_color="#000000" fill="#0070d1"/><path d="m408 192h-176v80h176zm-16 64h-144v-48h144zm0 0" data-original="#000000" class="active-path" data-old_color="#000000" fill="#0070d1"/><path d="m144 264c4.40625 0 8 3.585938 8 8h16c0-10.414062-6.710938-19.214844-16-22.527344v-17.472656h-16v17.472656c-9.289062 3.3125-16 12.113282-16 22.527344 0 13.230469 10.769531 24 24 24 4.40625 0 8 3.585938 8 8s-3.59375 8-8 8-8-3.585938-8-8h-16c0 10.414062 6.710938 19.214844 16 22.527344v17.472656h16v-17.472656c9.289062-3.3125 16-12.113282 16-22.527344 0-13.230469-10.769531-24-24-24-4.40625 0-8-3.585938-8-8s3.59375-8 8-8zm0 0" data-original="#000000" class="active-path" data-old_color="#000000" fill="#666666"/><path d="m456 64c-22.609375 0-42.792969 10.496094-56 26.847656v-18.847656c0-39.703125-32.304688-72-72-72h-56v8c0 39.703125 32.304688 72 72 72h40v80h-155.808594l-26.101562-30.113281 20.742187-17.78125c21.078125-18.066407 33.167969-44.34375 33.167969-72.105469 0-22.054688-17.945312-40-40-40-14.550781 0-20.367188 15.503906-25.503906 29.191406-2.464844 6.578125-7.054688 18.808594-10.511719 18.808594-3.464844 0-8.054687-12.230469-10.519531-18.816406-5.136719-13.679688-10.960938-29.183594-25.503906-29.183594-14.546876 0-20.359376 15.503906-25.496094 29.191406-2.464844 6.578125-7.050782 18.808594-10.496094 18.808594-3.449219 0-8.03125-12.230469-10.496094-18.808594-5.128906-13.6875-10.9375-29.191406-25.472656-29.191406-22.054688 0-40 17.945312-40 40 0 27.761719 12.089844 54.039062 33.167969 72.105469l20.753906 17.78125-51.21875 59.097656c-22.375 25.816406-34.703125 58.847656-34.703125 93.007813 0 78.304687 63.703125 142.007812 142.007812 142.007812h3.984376c18.542968 0 36.96875-3.71875 54.007812-10.710938v58.710938c0 13.230469 10.769531 24 24 24h192c13.230469 0 24-10.769531 24-24v-288c0-13.230469-10.769531-24-24-24h-16v-16h24c39.695312 0 72-32.296875 72-72v-8zm-112 0c-28.167969 0-51.535156-20.894531-55.433594-48h39.433594c28.167969 0 51.535156 20.894531 55.433594 48zm-144 269.105469c-13.742188 17.070312-33.976562 26.894531-56 26.894531-39.695312 0-72-32.296875-72-72s32.304688-72 72-72c22.023438 0 42.246094 9.824219 56 26.902344zm-152-293.105469c0-13.230469 10.769531-24 24-24 3.449219 0 8.023438 12.230469 10.488281 18.808594 5.128907 13.6875 10.9375 29.191406 25.480469 29.191406s20.351562-15.503906 25.488281-29.183594c2.464844-6.585937 7.046875-18.816406 10.503907-18.816406 3.464843 0 8.046874 12.230469 10.511718 18.808594 5.144532 13.6875 10.960938 29.191406 25.511719 29.191406 14.542969 0 20.359375-15.503906 25.496094-29.183594 2.464843-6.585937 7.054687-18.816406 10.519531-18.816406 13.230469 0 24 10.769531 24 24 0 23.078125-10.046875 44.9375-27.574219 59.960938l-23.386719 20.039062h-90.078124l-23.375-20.039062c-17.539063-15.023438-27.585938-36.882813-27.585938-59.960938zm97.992188 368h-3.984376c-69.480468 0-126.007812-56.519531-126.007812-126.007812 0-30.3125 10.9375-59.625 30.792969-82.519532l54.992187-63.472656h84.429688l24.359375 28.113281c-6.375 4.320313-10.574219 11.621094-10.574219 19.886719v36.078125c-15.574219-12.917969-35.152344-20.078125-56-20.078125-48.519531 0-88 39.480469-88 88s39.480469 88 88 88c20.847656 0 40.425781-7.160156 56-20.078125v39.894531c-16.761719 7.953125-35.320312 12.183594-54.007812 12.183594zm278.007812-224v288c0 4.414062-3.59375 8-8 8h-192c-4.40625 0-8-3.585938-8-8v-288c0-4.414062 3.59375-8 8-8h192c4.40625 0 8 3.585938 8 8zm0-56h-23.433594c3.898438-27.105469 27.265625-48 55.433594-48h23.433594c-3.898438 27.105469-27.265625 48-55.433594 48zm0 0" data-original="#000000" class="active-path" data-old_color="#000000" fill="#666666"/></g> </svg>
