<svg xmlns="http://www.w3.org/2000/svg" fill="none" viewBox="0 0 16 16" class="h-svgo-icon h-svgo-icon--small" style="fill:#000;color:#000;" data-v-3a117f60="" data-v-adc70120=""><path fill="currentColor" d="M10.838 6.518a.761.761 0 0 0 0-1.075.756.756 0 0 0-1.072 0L7.471 7.745 6.456 6.727a.756.756 0 0 0-1.071 0 .761.761 0 0 0 0 1.075l1.547 1.552.003.003a.756.756 0 0 0 1.072 0l2.83-2.84Z"></path><path fill="currentColor" fill-rule="evenodd" d="M1.003 4.4A2.027 2.027 0 0 1 2.17 2.45L7.019.19A2.016 2.016 0 0 1 8.694.176l5.108 2.285a2.027 2.027 0 0 1 1.195 1.963l-.006.105c-.228 4.116-2.06 8.252-5.766 10.035-.556.268-1.039.436-1.372.436-.338 0-.817-.174-1.363-.448-3.548-1.783-5.246-5.805-5.466-9.779l-.02-.372Zm12.48-.06-.005.105c-.211 3.806-1.888 7.295-4.909 8.749-.24.116-.435.195-.582.243-.063.02-.106.032-.132.037a1.394 1.394 0 0 1-.122-.036 4.553 4.553 0 0 1-.564-.245C4.299 11.751 2.74 8.375 2.537 4.69l-.02-.373a.507.507 0 0 1 .29-.487l4.85-2.262a.504.504 0 0 1 .42-.003l5.108 2.285c.191.085.31.28.299.49Z" clip-rule="evenodd"></path></svg>