<svg data-v-adc70120="" data-v-776bd732="" xmlns="http://www.w3.org/2000/svg" fill="none" viewBox="0 0 24 24" class="h-svgo-icon" style="fill: #000; color: #000;"><path fill="currentColor" fill-rule="evenodd" d="M4.25 5.25c0-.855.398-1.549.944-2.068.532-.504 1.23-.874 1.956-1.145 1.455-.545 3.268-.787 4.85-.787 1.582 0 3.396.242 4.85.787.726.271 1.424.64 1.956 1.145.546.52.944 1.213.944 2.068V18c0 1.56-1.12 2.767-2.482 3.525-1.395.777-3.257 1.225-5.268 1.225-2.011 0-3.873-.448-5.268-1.225C5.37 20.767 4.25 19.561 4.25 18V5.25Zm2 0c0-.18.071-.38.321-.617.266-.252.693-.504 1.28-.723 1.17-.438 2.731-.66 4.149-.66 1.418 0 2.98.222 4.15.66.586.22 1.013.47 1.279.723.25.237.321.436.321.617 0 .18-.071.38-.321.617-.266.252-.693.504-1.28.723-1.17.438-2.731.66-4.149.66-1.418 0-2.98-.222-4.15-.66-.586-.22-1.013-.47-1.279-.723-.25-.237-.321-.436-.321-.617Zm0 7.311v1.689c0 .18.071.38.321.617.266.252.693.504 1.28.723 1.17.438 2.731.66 4.149.66 1.418 0 2.98-.222 4.15-.66.586-.22 1.013-.47 1.279-.723.25-.237.321-.436.321-.617v-1.689a7.477 7.477 0 0 1-.9.402c-1.455.545-3.268.787-4.85.787-1.582 0-3.395-.242-4.85-.787a7.474 7.474 0 0 1-.9-.402Zm11.5-2.811c0 .18-.071.38-.321.617-.266.252-.693.504-1.28.723-1.17.438-2.731.66-4.149.66-1.418 0-2.98-.222-4.15-.66-.586-.22-1.013-.47-1.279-.723-.25-.237-.321-.436-.321-.617V8.061c.288.154.591.287.9.402 1.455.545 3.268.787 4.85.787 1.582 0 3.396-.242 4.85-.787.309-.115.612-.248.9-.402V9.75Zm0 7.311a7.477 7.477 0 0 1-.9.402c-1.455.545-3.268.787-4.85.787-1.582 0-3.395-.242-4.85-.787a7.474 7.474 0 0 1-.9-.402V18c0 .51.38 1.18 1.455 1.778 1.043.58 2.556.972 4.295.972 1.739 0 3.252-.391 4.295-.972C17.37 19.179 17.75 18.51 17.75 18v-.939Z" clip-rule="evenodd"></path></svg>