<svg data-v-adc70120="" data-v-776bd732="" xmlns="http://www.w3.org/2000/svg" fill="none" viewBox="0 0 24 24" class="h-svgo-icon" style="fill:#000; color:#000;"><path fill="currentColor" fill-rule="evenodd" d="M19.003 4.834a2.5 2.5 0 1 0 0 5 2.5 2.5 0 0 0 0-5Zm-4.39 1.5a4.502 4.502 0 0 1 8.89 1 4.5 4.5 0 0 1-8.89 1H1.5a1 1 0 0 1 0-2h13.114ZM5.002 14.17a2.5 2.5 0 1 0 0 5 2.5 2.5 0 0 0 0-5Zm-4.5 2.5a4.5 4.5 0 0 1 8.889-1h13.113a1 1 0 1 1 0 2H9.39a4.502 4.502 0 0 1-8.89-1Z" clip-rule="evenodd"></path></svg>