<svg data-v-adc70120="" data-v-776bd732="" xmlns="http://www.w3.org/2000/svg" fill="none" viewBox="0 0 24 14" class="h-svgo-icon" style="fill: #000; color: #000;"><path fill="currentColor" fill-rule="evenodd" d="M15.115 5.001a.909.909 0 0 1 .905-.77h2.595a2.765 2.765 0 0 0 2.61 1.841A2.778 2.778 0 0 0 24 3.297a2.765 2.765 0 0 0-2.776-2.76c-1.206 0-2.232.768-2.61 1.84H16.02c-1.357 0-2.52.98-2.73 2.323l-.106.603a.923.923 0 0 1-.905.77h-.754a2.765 2.765 0 0 0-2.61-1.841c-1.207 0-2.232.77-2.61 1.84H5.37a2.765 2.765 0 0 0-5.37.92c0 1.524 1.237 2.776 2.76 2.776 1.207 0 2.233-.77 2.61-1.84h.935a2.765 2.765 0 0 0 2.61 1.84c1.207 0 2.233-.77 2.61-1.84h.754c.453 0 .83.316.905.769l.106.603c.21 1.328 1.373 2.308 2.73 2.308h.136a2.758 2.758 0 0 0 2.61 1.856c1.523 0 2.76-1.252 2.76-2.776 0-1.523-1.237-2.775-2.76-2.775-1.207 0-2.233.769-2.61 1.855h-.136a.923.923 0 0 1-.905-.77l-.106-.618a2.841 2.841 0 0 0-.663-1.388c.332-.377.573-.86.663-1.387L15.115 5Zm6.11-2.625c.512 0 .92.423.92.92 0 .498-.408.936-.92.936a.927.927 0 0 1-.92-.935c0-.513.407-.92.92-.92ZM2.76 7.913a.914.914 0 0 1-.92-.92c0-.513.407-.92.92-.92.512 0 .92.422.92.92 0 .497-.408.92-.92.92Zm6.154 0a.914.914 0 0 1-.92-.92c0-.513.407-.92.92-.92.513 0 .92.422.92.92 0 .497-.407.92-.92.92Zm9.85 1.855c.498 0 .92.407.92.92 0 .513-.422.92-.92.92a.924.924 0 0 1-.92-.92c0-.513.408-.92.92-.92Z" clip-rule="evenodd"></path></svg>